<svg xmlns="http://www.w3.org/2000/svg" width="64" height="64" viewBox="0 0 640 640" shape-rendering="geometricPrecision" text-rendering="geometricPrecision" image-rendering="optimizeQuality" fill-rule="evenodd" clip-rule="evenodd"><path d="M465.195 262.361L320.012 407.556 174.805 262.361h290.389zM96.568-.012H543.502v.154c26.588.035 50.742 10.89 68.199 28.358 17.315 17.339 28.098 41.375 28.157 67.914h.154V543.502h-.154c-.035 26.588-10.89 50.753-28.358 68.198-17.339 17.316-41.375 28.1-67.914 28.158v.154H96.498v-.154c-26.611-.035-50.765-10.901-68.199-28.358C10.984 594.16.201 570.125.142 543.585h-.154V96.497h.154c.035-26.61 10.89-50.753 28.358-68.198C45.84 10.984 69.875.201 96.414.142v-.154h.154zm446.864 73.23H96.414v-.154c-6.271.011-12.118 2.716-16.429 7.015-4.252 4.24-6.921 10.087-6.921 16.418h.153v447.088h-.153c.012 6.284 2.716 12.13 7.016 16.43 4.24 4.252 10.086 6.921 16.417 6.921v-.154h447.089v.154c6.283-.012 12.118-2.717 16.429-7.016 4.252-4.24 6.921-10.086 6.921-16.417h-.153V96.414h.153c-.012-6.271-2.716-12.118-7.016-16.429-4.24-4.252-10.086-6.921-16.417-6.921v.153h-.071z"/></svg>